inDegrees=yes
name=ik_lifting_orientations
DataType=double
version=3
OpenSimVersion=4.5-2024-01-10-34fd6af
endheader
time	pelvis_tilt	pelvis_list	pelvis_rotation	pelvis_tx	pelvis_ty	pelvis_tz	hip_flexion_r	hip_adduction_r	hip_rotation_r	knee_angle_r	knee_angle_r_beta	ankle_angle_r	subtalar_angle_r	mtp_angle_r	hip_flexion_l	hip_adduction_l	hip_rotation_l	knee_angle_l	knee_angle_l_beta	ankle_angle_l	subtalar_angle_l	mtp_angle_l	lumbar_extension	lumbar_bending	lumbar_rotation	arm_flex_r	arm_add_r	arm_rot_r	elbow_flex_r	pro_sup_r	wrist_flex_r	wrist_dev_r	arm_flex_l	arm_add_l	arm_rot_l	elbow_flex_l	pro_sup_l	wrist_flex_l	wrist_dev_l
1.1	-40.63489639132109	-3.141574974602793	-130.7529452730843	0	0.9399999998679526	0	39.6252310568515	-10.26192246551115	0	60.64057198702439	1.058377641466216	-5.121937068919362	0	0	39.6252310568515	-10.26192246551115	0	60.64057198702439	1.058377641466216	-5.121937068919362	0	0	-36.76653163660005	23.51846000800824	7.534543451414176	27.20259997800181	11.72349150735612	9.361870532449808	0.008012972093322003	-0.10959972691774	0	0	0	-9.148793965102177	0	90.61769157252687	-0.10959972691774	0	0
1.11	-40.47624061025704	-2.933798130789921	-130.9603774338941	0	0.9399999998679526	0	39.62750748122186	-10.26153557228019	0	60.64036073097582	1.058373954352603	-5.121701987873186	0	0	39.62750748122186	-10.26153557228019	0	60.64036073097582	1.058373954352603	-5.121701987873186	0	0	-37.19584771353585	24.32075075368968	8.346902552456804	28.45466019365301	12.43241754808728	9.872178149160593	0.007593523429197294	-0.1095676611638005	0	0	0	-9.150057628530645	0	90.61751064903446	-0.1095676611638005	0	0
1.12	-40.315544522203	-2.729884368136266	-131.210291132911	0	0.9399999998679526	0	39.63021977859799	-10.26107497172646	0	60.6401090686659	1.058369562016692	-5.121422240977775	0	0	39.63021977859799	-10.26107497172646	0	60.6401090686659	1.058369562016692	-5.121422240977775	0	0	-37.65100324116946	25.07025691184947	9.208675221681164	29.67566523039456	13.09218948719336	10.36728675511307	0.007219542566051259	-0.1095294542400497	0	0	0	-9.151563296492029	0	90.61729507543616	-0.1095294542400497	0	0
1.13	-40.2767312121951	-2.581184412306405	-131.3956946595799	0	0.9399999998679526	0	39.63289551179562	-10.26062119316592	0	60.63986074954753	1.058365228030481	-5.121146790680639	0	0	39.63289551179562	-10.26062119316592	0	60.63986074954753	1.058365228030481	-5.121146790680639	0	0	-38.24740794276101	25.8889254319992	10.04861919447822	30.85983389479704	13.37097600930595	10.35786987426488	0.006859116391717745	-0.1094917551165419	0	0	0	-9.153049125047534	0	90.61708236699354	-0.1094917551165419	0	0
1.14	-41.40749815276634	-2.748775062996623	-131.3589894778604	0	0.9399999998679526	0	39.63565993438102	-10.26015324601267	0	60.63960404168177	1.058360747633008	-5.120862926639711	0	0	39.63565993438102	-10.26015324601267	0	60.63960404168177	1.058360747633008	-5.120862926639711	0	0	-40.05028477100795	27.38306299333196	11.13325411257174	32.06148207666138	13.75105594249701	10.76977975684272	0.006643281230656811	-0.1094527925019031	0	0	0	-9.154585135302149	0	90.61686252962103	-0.1094527925019031	0	0
1.15	-41.05483377481858	-2.629117475494173	-131.4500305361607	0	0.9399999998679526	0	39.63905883714769	-10.25957830333168	0	60.63928856055472	1.058355241448613	-5.12051432264507	0	0	39.63905883714769	-10.25957830333168	0	60.63928856055472	1.058355241448613	-5.12051432264507	0	0	-40.53180195613781	27.94580570281724	11.7042373120554	33.4114772889359	14.1627773849602	11.26278494163467	0.006421282374424191	-0.1094048896663956	0	0	0	-9.156473430014787	0	90.6165922491579	-0.1094048896663956	0	0
1.16	-40.97481979566752	-2.471865882416389	-131.6259466617224	0	0.9399999998679526	0	39.64153319843832	-10.2591605529718	0	60.63905876001784	1.058351230672621	-5.120261204107845	0	0	39.64153319843832	-10.2591605529718	0	60.63905876001784	1.058351230672621	-5.120261204107845	0	0	-41.24697036342557	28.64051901927216	12.48630162997974	34.76069789889556	14.5578843652556	11.39251632909516	0.006136337377073901	-0.1093700046448062	0	0	0	-9.157848905874546	0	90.61639541866211	-0.1093700046448062	0	0
1.17	-41.37289831116745	-2.395935172657406	-131.7929164800475	0	0.9399999998679526	0	39.64430391248915	-10.25869316555012	0	60.63880148453557	1.058346740368371	-5.119978137594375	0	0	39.64430391248915	-10.25869316555012	0	60.63880148453557	1.058346740368371	-5.119978137594375	0	0	-42.53269690488239	29.71758239015241	13.64252385536658	36.04127196211633	14.75835171211106	11.75540290737618	0.005907694204726517	-0.1093309399811078	0	0	0	-9.159389166449481	0	90.6161750055266	-0.1093309399811078	0	0
1.18	-41.49344071358765	-2.255271383318957	-131.9729021024035	0	0.9399999998679526	0	39.64717862908527	-10.25820904215701	0	60.63853444538977	1.058342079656045	-5.119685122154266	0	0	39.64717862908527	-10.25820904215701	0	60.63853444538977	1.058342079656045	-5.119685122154266	0	0	-43.48879538764492	30.51207372653028	14.63108779448822	36.99993753244939	14.59677883834169	12.13472880213662	0.005862390774791879	-0.1092903976737888	0	0	0	-9.160987980998787	0	90.6159462551541	-0.1092903976737888	0	0
1.19	-41.81779150419509	-2.231419783229025	-132.0704976022393	0	0.9399999998679526	0	39.65056070812326	-10.25763989557745	0	60.63822041425784	1.058336598778839	-5.119340812668536	0	0	39.65056070812326	-10.25763989557745	0	60.63822041425784	1.058336598778839	-5.119340812668536	0	0	-44.45719237200895	31.21077929257126	15.43451666681103	37.95664639070134	15.30796847514648	12.91703531295897	0.005699025254301388	-0.1092427018507325	0	0	0	-9.162868752981538	0	90.61567714276222	-0.1092427018507325	0	0
1.2	-41.68371605813894	-2.112113142722493	-132.1963412602915	0	0.9399999998679526	0	39.69391551911527	-10.25052068888067	0	60.63406761843065	1.058264118818492	-5.115084864253959	0	0	39.69391551911527	-10.25052068888067	0	60.63406761843065	1.058264118818492	-5.115084864253959	0	0	-44.55842161366644	31.34390293155122	15.7278994692759	38.50832245581432	16.47685792117517	14.19734902186844	0.005588879607462894	-0.1086289200458061	0	0	0	-9.18715400248151	0	90.6122140245495	-0.1086289200458061	0	0
1.21	-41.57597979362845	-1.987340756556481	-132.3374862085649	0	0.9399999998679526	0	39.69696764057093	-10.25001803857628	0	60.63378363183875	1.058259162317431	-5.114783501477157	0	0	39.69696764057093	-10.25001803857628	0	60.63378363183875	1.058259162317431	-5.114783501477157	0	0	-45.31885891815519	31.85920719410176	16.46185042739786	39.48787672236535	17.08932848864677	15.43596740148337	0.005467741011984607	-0.1085857536840149	0	0	0	-9.188858950146516	0	90.611970468782	-0.1085857536840149	0	0
1.22	-42.1803614981381	-2.043841139042168	-132.3626356400169	0	0.9399999998679526	0	39.70044428506097	-10.24944627973754	0	60.63346013363474	1.058253516208647	-5.114440922869531	0	0	39.70044428506097	-10.24944627973754	0	60.63346013363474	1.058253516208647	-5.114440922869531	0	0	-46.92725218999079	32.82206944675237	17.52525052358731	40.55498884337884	17.6637581221735	16.38625187765791	0.005334934274820083	-0.1085365756072006	0	0	0	-9.190801492294131	0	90.61169299337841	-0.1085365756072006	0	0
1.23	-42.21823924897745	-1.951873796445398	-132.4789906967789	0	0.9399999998679526	0	39.70384278289213	-10.24888818696056	0	60.63314389861937	1.058247996866419	-5.114106753791384	0	0	39.70384278289213	-10.24888818696056	0	60.63314389861937	1.058247996866419	-5.114106753791384	0	0	-47.58744669063164	33.28041061413889	18.19572455174256	41.50445274604039	18.43447322225303	17.19041493394777	0.005235707106880683	-0.1084884953475291	0	0	0	-9.192700814745287	0	90.61142171215594	-0.1084884953475291	0	0
1.24	-42.00679178877022	-1.869431009471971	-132.5488903155573	0	0.9399999998679526	0	39.7063874791025	-10.24847108451343	0	60.63290697947591	1.058243861847304	-5.113857175457213	0	0	39.7063874791025	-10.24847108451343	0	60.63290697947591	1.058243861847304	-5.113857175457213	0	0	-47.97011595368535	33.62662289454073	18.65282380362098	42.37419464162782	19.49259236333042	18.07855832011179	0.005145104334704103	-0.1084524819473373	0	0	0	-9.194123791528506	0	90.61121851528524	-0.1084524819473373	0	0
1.25	-42.8513800506298	-1.965346400684444	-132.5545215853035	0	0.9399999998679526	0	39.74724575821361	-10.2416437535402	0	60.62911482049434	1.058177676187317	-5.109790147691822	0	0	39.74724575821361	-10.2416437535402	0	60.62911482049434	1.058177676187317	-5.109790147691822	0	0	-49.63984685733597	34.60698238222783	19.83038728495396	43.01412776430733	20.32595415666148	19.3641379889055	0.005116624610426337	-0.1078807634550396	0	0	0	-9.216508678629157	0	90.60799271964558	-0.1078807634550396	0	0
1.26	-42.25229761608071	-1.810285332519477	-132.6312805977645	0	0.9399999998679526	0	39.79508158550408	-10.23401105508103	0	60.62451854012132	1.058097455961463	-5.105297555128902	0	0	39.79508158550408	-10.23401105508103	0	60.62451854012132	1.058097455961463	-5.105297555128902	0	0	-49.57895200679408	34.76921285873458	20.08284005963921	43.5360908963389	21.19665284966921	20.57235535407366	0.005090414642613239	-0.1072023386727315	0	0	0	-9.243365161887883	0	90.60416487048799	-0.1072023386727315	0	0
1.27	-42.65396902114582	-1.88170306521157	-132.628856573169	0	0.9399999998679526	0	39.79804425884132	-10.23354639863081	0	60.62424167345329	1.058092623726517	-5.105024685492388	0	0	39.79804425884132	-10.23354639863081	0	60.62424167345329	1.058092623726517	-5.105024685492388	0	0	-50.53062209618792	35.23627623830514	20.6884529091166	44.18018862733391	22.20549915688732	21.44238270099142	0.005059117195006384	-0.1071601749120475	0	0	0	-9.245036327859605	0	90.60392697209407	-0.1071601749120475	0	0
1.28	-42.7891412505016	-1.900102970103645	-132.6249753321942	0	0.9399999998679526	0	39.80117123513039	-10.23305661447078	0	60.62394944778645	1.058087523426472	-5.104737231011698	0	0	39.80117123513039	-10.23305661447078	0	60.62394944778645	1.058087523426472	-5.104737231011698	0	0	-51.23657144987733	35.66081932183902	21.22232745840427	45.03011580324642	23.02113340247345	22.11309549751748	0.005029650242705035	-0.1071156666442471	0	0	0	-9.24680053561034	0	90.60367584542037	-0.1071156666442471	0	0
1.29	-42.30602004685083	-1.926669216828935	-132.520463268697	0	0.9399999998679526	0	39.8044815246716	-10.23253887747774	0	60.62364007428879	1.058082123840319	-5.104433570407599	0	0	39.8044815246716	-10.23253887747774	0	60.62364007428879	1.058082123840319	-5.104433570407599	0	0	-52.15363730586049	36.39665624575263	21.94453624336013	45.96248581463274	23.67246856601344	23.56129493260764	0.005053952703234109	-0.1070685413692918	0	0	0	-9.248668630927048	0	90.60340995295721	-0.1070685413692918	0	0
1.3	-42.14464442881234	-1.92295970442622	-132.4981591482977	0	0.9399999998679526	0	39.8076669876704	-10.23204136332862	0	60.62334236162468	1.058076927774106	-5.104141957642749	0	0	39.8076669876704	-10.23204136332862	0	60.62334236162468	1.058076927774106	-5.104141957642749	0	0	-52.98117221776972	36.94054197512733	22.61845023522655	46.65528733616712	24.80164942522653	24.66616234432892	0.005110723780297461	-0.1070231863217316	0	0	0	-9.250466681190595	0	90.60315404856689	-0.1070231863217316	0	0
1.31	-41.97406219622589	-1.920848328183118	-132.4922699909675	0	0.9399999998679526	0	39.85181378189282	-10.22529633282057	0	60.61911698693368	1.058003181073617	-5.100239815366662	0	0	39.85181378189282	-10.22529633282057	0	60.61911698693368	1.058003181073617	-5.100239815366662	0	0	-53.38311066699454	37.24221982387095	22.9844476146349	47.18331850483079	26.19466339281653	25.74325135565683	0.005172267936110092	-0.1063938013530775	0	0	0	-9.275442770459168	0	90.59960290102168	-0.1063938013530775	0	0
1.32	-41.71570885852452	-1.810665398663092	-132.5682013837006	0	0.9399999998679526	0	39.85477403493017	-10.22484430041995	0	60.61883973615534	1.057998342134681	-5.099977329048475	0	0	39.85477403493017	-10.22484430041995	0	60.61883973615534	1.057998342134681	-5.099977329048475	0	0	-53.72419236782675	37.4512995795935	23.43904885578311	47.94911948447698	27.37637877909576	26.39069845158514	0.005234422276860743	-0.1063515275798103	0	0	0	-9.277121489788794	0	90.59936438214852	-0.1063515275798103	0	0
1.33	-41.2547427718327	-1.729407441820907	-132.6040521996302	0	0.9399999998679526	0	39.85753595774911	-10.22442327211177	0	60.61858095310717	1.057993825518442	-5.099733005049788	0	0	39.85753595774911	-10.22442327211177	0	60.61858095310717	1.057993825518442	-5.099733005049788	0	0	-54.0292415202337	37.69527236664388	23.83175651775738	48.81745203268173	28.31966702456899	27.2046201532144	0.005301185868258511	-0.1063120747355379	0	0	0	-9.278688486360943	0	90.59914177965766	-0.1063120747355379	0	0
